<svg width="97" height="97" viewBox="0 0 97 97" fill="none" xmlns="http://www.w3.org/2000/svg">
<path d="M1.11255 54.4951C0.200173 47.1167 3.8497 1 49.4687 1C95.0876 1 96 48.039 96 54.4951" stroke="black" stroke-width="2" stroke-linecap="round"/>
<path d="M2.93732 63.7186C5.67445 64.6408 4.76208 64.641 12.9735 64.6409C21.1849 64.6409 24.3537 59.2888 32.1335 59.107C40.6005 58.9091 44.6511 64.8389 53.1182 64.6409C60.8979 64.4591 64.4984 59.2888 72.2781 59.107C80.7452 58.9091 83.2267 64.6409 93.2629 64.6409" stroke="black" stroke-width="2" stroke-linecap="round"/>
<path d="M8.41162 74.7866C18.4478 74.7865 24.8344 69.2525 31.2211 69.2527C39.6904 69.2528 43.737 74.8814 52.2058 74.7866C60.3304 74.6957 64.1656 68.7971 72.2782 69.2527C79.0282 69.6318 82.3143 72.9419 88.701 74.7866" stroke="black" stroke-width="2" stroke-linecap="round"/>
<path d="M25.7468 91.3884C33.0459 88.6215 43.9944 96.0001 51.2934 96C58.5925 95.9999 63.1544 89.5437 72.2782 90.466" stroke="black" stroke-width="2" stroke-linecap="round"/>
<path d="M16.623 84.9321C16.623 84.9321 25.2602 80.7002 31.2211 80.3204C39.3301 79.8038 43.1689 85.7635 51.2935 85.8544C59.7622 85.9492 63.8504 79.4736 72.2782 80.3204C76.3208 80.7267 82.3143 83.0874 82.3143 83.0874" stroke="black" stroke-width="2" stroke-linecap="round"/>
</svg>
